<?xml version="1.0" encoding="utf-8"?>
<!-- Generator: Adobe Illustrator 19.0.0, SVG Export Plug-In . SVG Version: 6.00 Build 0)  -->
<svg version="1.1" id="Layer_1" xmlns="http://www.w3.org/2000/svg" xmlns:xlink="http://www.w3.org/1999/xlink" x="0px" y="0px"
	 viewBox="0 0 500 500" style="enable-background:new 0 0 500 500;" xml:space="preserve">
<style type="text/css">
	.st0{fill:#FDB300;}
	.st1{fill:#EB6C00;}
	.st2{fill:#FDAD00;}
	.st3{fill:#FDD231;}
	.st4{fill:#FEEEB7;}
</style>
<g id="XMLID_1_">
	<polygon id="XMLID_2_" class="st0" points="250,84.9 147.1,95.7 67.5,202.6 250,415.1 432.5,202.6 352.9,95.7 	"/>
	<polygon id="XMLID_3_" class="st1" points="67.5,202.6 250,415.1 141.4,202.6 	"/>
	<polygon id="XMLID_4_" class="st1" points="358.6,202.6 250,415.1 432.5,202.6 	"/>
	<polygon id="XMLID_5_" class="st2" points="141.4,202.6 250,415.1 358.6,202.6 	"/>
	<polygon id="XMLID_6_" class="st3" points="147.1,95.7 141.4,202.6 250,84.9 	"/>
	<polygon id="XMLID_7_" class="st3" points="358.6,202.6 352.9,95.7 250,84.9 	"/>
	<polygon id="XMLID_8_" class="st2" points="358.6,202.6 432.5,202.6 352.9,95.7 	"/>
	<polygon id="XMLID_9_" class="st2" points="67.5,202.6 141.4,202.6 147.1,95.7 	"/>
	<polygon id="XMLID_10_" class="st4" points="250,84.9 141.4,202.6 358.6,202.6 	"/>
</g>
</svg>
